Coordinates
version=1
nRows=17
nColumns=24
inDegrees=yes

Units are S.I. units (second, meters, Newtons, ...)
Angles are in degrees.

endheader
time	pelvis_tilt	pelvis_list	pelvis_rotation	pelvis_tx	pelvis_ty	pelvis_tz	hip_flexion_r	hip_adduction_r	hip_rotation_r	knee_angle_r	ankle_angle_r	subtalar_angle_r	mtp_angle_r	hip_flexion_l	hip_adduction_l	hip_rotation_l	knee_angle_l	ankle_angle_l	subtalar_angle_l	mtp_angle_l	lumbar_extension	lumbar_bending	lumbar_rotation
      1.06250000	     -1.87981388	      1.38639924	      1.74551528	      0.57974331	      1.01485446	      0.26569468	     10.55000405	      3.59806080	      4.56425085	    -15.11415557	      4.96459070	    -15.12990399	      5.71071528	     14.14251038	      1.67221418	     -2.11367955	    -65.91230745	      5.97904997	     -8.39008980	      5.45410593	     -0.27227454	      0.08274759	      1.60200497
      1.06666667	     -1.86461779	      1.46154943	      1.43931047	      0.58455879	      1.01545450	      0.26610470	     10.09173179	      3.54111400	      4.70802915	    -14.78937605	      5.04297718	    -14.90826516	      5.77860168	     14.68256345	      1.70035174	     -2.40125338	    -65.69550295	      6.17045998	     -8.32016992	      5.42582628	     -0.31270986	      0.00654130	      1.87200776
      1.07083333	     -1.85197173	      1.54631903	      1.14535439	      0.58936704	      1.01604064	      0.26648437	      9.63412521	      3.46720594	      4.84534551	    -14.46120043	      5.14542781	    -14.70212105	      5.88397374	     15.21474056	      1.74479161	     -2.66681962	    -65.43535522	      6.35028455	     -8.26457139	      5.37762689	     -0.34526779	     -0.06809206	      2.23139978
      1.07500000	     -1.84891664	      1.62683160	      0.84413784	      0.59415332	      1.01658300	      0.26686966	      9.19142302	      3.39567555	      4.99656158	    -14.13404057	      5.18679663	    -14.50573218	      5.92763820	     15.75163749	      1.77482177	     -2.94829350	    -65.14614598	      6.50609808	     -8.26841168	      5.35875253	     -0.36555495	     -0.13749707	      2.34337941
      1.07916667	     -1.81231920	      1.70869066	      0.55022232	      0.59892390	      1.01714154	      0.26727418	      8.71769154	      3.32073451	      5.13407824	    -13.81934267	      5.29952669	    -14.29158229	      6.03979234	     16.24211641	      1.79646991	     -3.22585978	    -64.82108957	      6.67711579	     -8.22425978	      5.30430427	     -0.43794544	     -0.23573836	      2.73597605
      1.08333333	     -1.82143994	      1.78140600	      0.26155923	      0.60367643	      1.01760151	      0.26765190	      8.29436946	      3.25146481	      5.29072524	    -13.50096344	      5.34354091	    -14.10738941	      6.08184567	     16.77963203	      1.80768322	     -3.49932268	    -64.47325710	      6.82398400	     -8.24081431	      5.28436804	     -0.44892067	     -0.30032632	      2.83880763
      1.08750000	     -1.79549903	      1.86028487	     -0.02810203	      0.60841484	      1.01807789	      0.26805000	      7.84081260	      3.17349151	      5.43772591	    -13.20039308	      5.45753183	    -13.91308110	      6.18524859	     17.26747191	      1.81822958	     -3.77105621	    -64.09082862	      6.97181938	     -8.22237656	      5.22958725	     -0.50829476	     -0.39808761	      3.21622798
      1.09166667	     -1.80540742	      1.92244692	     -0.31619112	      0.61314306	      1.01846191	      0.26843819	      7.42932107	      3.11059875	      5.58716426	    -12.90050329	      5.51614578	    -13.73384081	      6.25411938	     17.79136553	      1.80242689	     -4.04932254	    -63.69141203	      7.10958243	     -8.23967857	      5.19125134	     -0.51702741	     -0.47491151	      3.38762978
      1.09583333	     -1.79685750	      1.99483468	     -0.59101923	      0.61785774	      1.01885372	      0.26878980	      6.99610932	      3.03064527	      5.73896466	    -12.59901352	      5.61885853	    -13.55838088	      6.35140371	     18.28298705	      1.80929283	     -4.29408856	    -63.25027898	      7.23865493	     -8.24679269	      5.13318629	     -0.55551866	     -0.54291184	      3.68454582
      1.10000000	     -1.79470997	      2.06617459	     -0.86368080	      0.62255516	      1.01920308	      0.26914257	      6.57808051	      2.94877492	      5.88470652	    -12.31138455	      5.70628287	    -13.37562040	      6.45413748	     18.77394615	      1.80698005	     -4.54572754	    -62.78201287	      7.35589267	     -8.27273335	      5.06711975	     -0.58366059	     -0.62186406	      3.92009566
      1.10416667	     -1.81023250	      2.11291777	     -1.10015186	      0.62726484	      1.01949606	      0.26944717	      6.16362016	      2.88807744	      6.00997982	    -11.99584723	      5.77631033	    -13.22213063	      6.47307052	     19.28173878	      1.78778621	     -4.74777488	    -62.29878665	      7.47638922	     -8.30186230	      5.05627613	     -0.57223774	     -0.67306572	      3.95520627
      1.10833333	     -1.80633916	      2.19080236	     -1.40664652	      0.63190489	      1.01979736	      0.26984080	      5.76695586	      2.79849488	      6.20663150	    -11.74386083	      5.83334846	    -13.04136819	      6.51430005	     19.74748366	      1.77110652	     -5.03668331	    -61.76280586	      7.56527008	     -8.30941703	      5.02727965	     -0.63516043	     -0.75863915	      4.15818159
      1.11250000	     -1.76850612	      2.25062289	     -1.66255597	      0.63658627	      1.02011567	      0.27015467	      5.31177164	      2.71675770	      6.34096012	    -11.45954149	      5.96072677	    -12.87505100	      6.59267250	     20.16692042	      1.75672379	     -5.25607033	    -61.20144373	      7.65164929	     -8.32439531	      4.96580933	     -0.69676868	     -0.82570856	      4.53401478
      1.11666667	     -1.78885707	      2.29812312	     -1.91511871	      0.64123009	      1.02030793	      0.27047268	      4.92643458	      2.64947685	      6.49841725	    -11.18193710	      6.01709219	    -12.71014409	      6.62024223	     20.65006346	      1.72119392	     -5.47164965	    -60.63136495	      7.73422551	     -8.33606600	      4.94403422	     -0.70917703	     -0.88301549	      4.61035171
      1.12083333	     -1.74877750	      2.36669528	     -2.18010602	      0.64587730	      1.02057800	      0.27078293	      4.48585981	      2.55221046	      6.64123679	    -10.92584026	      6.14281748	    -12.54600268	      6.68811212	     21.04217297	      1.71056947	     -5.69436387	    -60.00165963	      7.78609465	     -8.34304108	      4.88186673	     -0.77863416	     -0.95796872	      4.93333193
      1.12500000	     -1.77375266	      2.41476944	     -2.43805618	      0.65050859	      1.02070126	      0.27109028	      4.12001288	      2.47850670	      6.79480841	    -10.67459464	      6.20408986	    -12.38310973	      6.71920888	     21.50503645	      1.66994403	     -5.90756781	    -59.36903224	      7.84014218	     -8.33348645	      4.85228897	     -0.77919153	     -1.01017852	      5.03694053
      1.12916667	     -1.76861913	      2.47191990	     -2.69603747	      0.65513403	      1.02084782	      0.27138083	      3.72681951	      2.38960245	      6.94463164	    -10.43420344	      6.30344636	    -12.22178900	      6.75504311	     21.91766324	      1.64384793	     -6.11167993	    -58.69344673	      7.86888715	     -8.31466450	      4.81485004	     -0.81132319	     -1.07130874	      5.23176004
